# File created by Blade
# Date/Time:  Fri Jan 16 15:45:56 2015
#---------------------------------------------------------
:version 1.10
:name HOM
:units
  mass 1.0
  length 1.000000
  angle deg
:documentation
     Acclaim Skeleton File
:root
   axis xyz
   order TX TY TZ RX RY RZ
   position 0.000000 0.000000 0.000000
   orientation 0 0 0
:bonedata
   begin
      id 1
      name Spine_dum
      direction 0.000000 1.000000 0.000000
      length 7.170412
      axis 0.0 0.0 0.0 xyz
   end
   begin
      id 2
      name LeftUpLeg_dum
      direction 1.000000 0.000000 0.000000
      length 4.318350
      axis 0.0 0.0 0.0 xyz
   end
   begin
      id 3
      name RightUpLeg_dum
      direction -1.000000 0.000000 0.000000
      length 4.318350
      axis 0.0 0.0 0.0 xyz
   end
   begin
      id 4
      name Spine
      direction 0.000000 1.000000 0.000000
      length 0.000000
      axis 0.0 0.0 0.0 xyz
      dof rx ry rz
   end
   begin
      id 5
      name Spine_dum1
      direction 0.000000 1.000000 0.000000
      length 14.276153
      axis 0.0 0.0 0.0 xyz
   end
   begin
      id 6
      name Spine_dum2
      direction 0.000000 1.000000 0.000000
      length 10.718243
      axis 0.0 0.0 0.0 xyz
   end
   begin
      id 7
      name Spine_dum3
      direction 0.000000 1.000000 0.000000
      length 10.718243
      axis 0.0 0.0 0.0 xyz
   end
   begin
      id 8
      name Head
      direction 0.000000 1.000000 0.000000
      length 4.527550
      axis 0.0 0.0 0.0 xyz
      dof rx ry rz
   end
   begin
      id 9
      name LeftShoulder
      direction 1.000000 0.000000 0.000000
      length 7.058872
      axis 0.0 0.0 -90.0 xyz
      dof rx ry rz
   end
   begin
      id 10
      name LeftArm
      direction 1.000000 0.000000 0.000000
      length 10.955525
      axis 0.0 0.0 -90.0 xyz
      dof rx ry rz
   end
   begin
      id 11
      name LeftForeArm
      direction 1.000000 0.000000 0.000000
      length 8.193716
      axis 0.0 0.0 -90.0 xyz
      dof ry rz rx
   end
   begin
      id 12
      name LeftHand
      direction 0.000000 0.000000 0.000000
      length 0.000000
      axis 0.0 0.0 -90.0 xyz
      dof rx ry rz
   end
   begin
      id 13
      name LeftHand_dum1
      direction 0.000000 0.000000 0.000000
      length 0.000000
      axis 0.0 0.0 -90.0 xyz
   end
   begin
      id 14
      name LeftHand_dum2
      direction 1.000000 0.000000 0.000000
      length 3.937000
      axis 0.0 0.0 -90.0 xyz
   end
   begin
      id 15
      name LeftHandThumb1
      direction 0.000000 0.000000 1.000000
      length 3.937000
      axis 0.0 0.0 -90.0 xyz
      dof rx rz ry
   end
   begin
      id 16
      name RightShoulder
      direction -1.000000 0.000000 0.000000
      length 7.058872
      axis 0.0 0.0 90.0 xyz
      dof rx ry rz
   end
   begin
      id 17
      name RightArm
      direction -1.000000 0.000000 0.000000
      length 10.955525
      axis 0.0 0.0 90.0 xyz
      dof rx ry rz
   end
   begin
      id 18
      name RightForeArm
      direction -1.000000 0.000000 0.000000
      length 8.193716
      axis 0.0 0.0 90.0 xyz
      dof ry rz rx
   end
   begin
      id 19
      name RightHand
      direction 0.000000 0.000000 0.000000
      length 0.000000
      axis 0.0 0.0 90.0 xyz
      dof rx ry rz
   end
   begin
      id 20
      name RightHand_dum1
      direction 0.000000 0.000000 0.000000
      length 0.000000
      axis 0.0 0.0 90.0 xyz
   end
   begin
      id 21
      name RightHand_dum2
      direction -1.000000 0.000000 0.000000
      length 3.937000
      axis 0.0 0.0 90.0 xyz
   end
   begin
      id 22
      name RightHandThumb1
      direction 0.000000 0.000000 1.000000
      length 3.937000
      axis 0.0 0.0 90.0 xyz
      dof rx rz ry
   end
   begin
      id 23
      name LeftUpLeg
      direction 0.000000 -1.000000 0.000000
      length 17.323638
      axis 0.0 0.0 0.0 xyz
      dof rx ry rz
   end
   begin
      id 24
      name LeftLeg
      direction 0.000000 -1.000000 0.000000
      length 16.270368
      axis 0.0 0.0 0.0 xyz
      dof rx ry rz
   end
   begin
      id 25
      name LeftFoot
      direction 0.000000 -0.258819 0.965926
      length 4.922846
      axis 15.0 0.0 0.0 xyz
      dof rx ry rz
   end
   begin
      id 26
      name LeftToeBase
      direction 0.000000 0.000000 1.000000
      length 2.952750
      axis 0.0 0.0 0.0 xyz
      dof rx ry rz
   end
   begin
      id 27
      name RightUpLeg
      direction 0.000000 -1.000000 0.000000
      length 17.323638
      axis 0.0 0.0 0.0 xyz
      dof rx ry rz
   end
   begin
      id 28
      name RightLeg
      direction 0.000000 -1.000000 0.000000
      length 16.270368
      axis 0.0 0.0 0.0 xyz
      dof rx ry rz
   end
   begin
      id 29
      name RightFoot
      direction 0.000000 -0.258819 0.965926
      length 4.922846
      axis 15.0 0.0 0.0 xyz
      dof rx ry rz
   end
   begin
      id 30
      name RightToeBase
      direction 0.000000 0.000000 1.000000
      length 2.952750
      axis 0.0 0.0 0.0 xyz
      dof rx ry rz
   end
:hierarchy
   begin
      root Spine_dum LeftUpLeg_dum RightUpLeg_dum
      Spine_dum Spine
      LeftUpLeg_dum LeftUpLeg
      RightUpLeg_dum RightUpLeg
      Spine Spine_dum1 Spine_dum2 Spine_dum3
      Spine_dum1 Head
      Spine_dum2 LeftShoulder
      Spine_dum3 RightShoulder
      LeftShoulder LeftArm
      LeftArm LeftForeArm
      LeftForeArm LeftHand
      LeftHand LeftHand_dum1 LeftHand_dum2
      LeftHand_dum1 LeftHandThumb1
      RightShoulder RightArm
      RightArm RightForeArm
      RightForeArm RightHand
      RightHand RightHand_dum1 RightHand_dum2
      RightHand_dum1 RightHandThumb1
      LeftUpLeg LeftLeg
      LeftLeg LeftFoot
      LeftFoot LeftToeBase
      RightUpLeg RightLeg
      RightLeg RightFoot
      RightFoot RightToeBase
   end

# File created by Blade
# Date/Time:  Fri Jan 16 15:45:48 2015
# Frame Rate: 120.000 fps
#------------------------------------------------------
:FULLY-SPECIFIED
:DEGREES
689
root -5.450082 35.264028 -9.794441 2.259611 -1.051464 -4.572702
Spine -6.875965 1.405902 0.831946
Head -4.545515 -0.977670 6.925788
LeftShoulder -21.988436 9.133365 -13.724831
LeftArm 20.287575 17.408509 -69.174091
LeftForeArm 15.873676 -0.000000 12.334137
LeftHand 2.261364 0.000000 -8.471226
LeftHandThumb1 -26.253704 0.000000 33.147579
RightShoulder -20.780891 31.759503 -51.256782
RightArm 41.219883 46.657398 -2.345406
RightForeArm -32.410985 -0.000000 10.645846
RightHand 12.534912 -0.000000 -24.129670
RightHandThumb1 -24.326973 -0.000000 -32.862282
LeftUpLeg 7.212338 12.318080 5.331465
LeftLeg -9.655124 -0.000000 0.000000
LeftFoot -13.998649 24.684443 -10.171542
LeftToeBase 21.623760 -0.000000 -0.000000
RightUpLeg 5.435439 -8.702366 1.325341
RightLeg -4.745060 -0.000000 0.000000
RightFoot -5.602853 -25.561807 7.287672
RightToeBase 12.039057 -0.000000 -0.000000
690
root -5.451380 35.264458 -9.801532 2.293282 -1.060517 -4.595496
Spine -6.832112 1.443694 0.737166
Head -4.704505 -1.173718 7.113770
LeftShoulder -21.895420 9.177543 -13.630075
LeftArm 20.276899 17.441600 -69.218761
LeftForeArm 15.793221 -0.000000 12.359601
LeftHand 2.222043 -0.000000 -8.464919
LeftHandThumb1 -26.253704 0.000000 33.147579
RightShoulder -20.877500 31.807484 -51.231803
RightArm 40.829300 46.859179 -2.149059
RightForeArm -32.476005 -0.000000 10.528498
RightHand 11.761821 -0.000000 -22.539582
RightHandThumb1 -24.326973 -0.000000 -32.862282
LeftUpLeg 7.171992 12.327738 5.345754
LeftLeg -9.662868 -0.000000 0.000000
LeftFoot -13.985470 24.700004 -10.131879
LeftToeBase 21.617508 -0.000000 -0.000000
RightUpLeg 5.393675 -8.703491 1.353695
RightLeg -4.756095 -0.000000 0.000000
RightFoot -5.576388 -25.528813 7.364658
RightToeBase 11.909957 -0.000000 -0.000000
691
root -5.454301 35.264776 -9.809586 2.343965 -1.072132 -4.605165
Spine -6.784215 1.462867 0.558820
Head -4.914357 -1.506906 7.345673
LeftShoulder -21.894765 9.092945 -13.437070
LeftArm 20.218694 17.560671 -69.304893
LeftForeArm 15.725863 0.000000 12.355372
LeftHand 2.321118 0.000000 -8.208193
LeftHandThumb1 -26.253704 0.000000 33.147579
RightShoulder -20.953120 31.931897 -51.126099
RightArm 40.155844 47.060448 -2.095672
RightForeArm -32.769298 -0.000000 10.940399
RightHand 11.052412 -0.000000 -19.778233
RightHandThumb1 -24.326973 -0.000000 -32.862282
LeftUpLeg 7.112426 12.348590 5.346005
LeftLeg -9.671332 -0.000000 0.000000
LeftFoot -13.974636 24.706749 -10.122325
LeftToeBase 21.657446 -0.000000 -0.000000
RightUpLeg 5.334590 -8.698951 1.375849
RightLeg -4.773448 -0.000000 0.000000
RightFoot -5.539486 -25.508233 7.346452
RightToeBase 12.103209 -0.000000 -0.000000
692
root -5.454968 35.264530 -9.816510 2.372903 -1.089087 -4.639791
Spine -6.737108 1.493602 0.502922
Head -5.034048 -1.337690 7.499940
LeftShoulder -21.803037 9.177017 -13.357997
LeftArm 20.248995 17.605691 -69.343713
LeftForeArm 15.699053 0.000000 12.377906
LeftHand 2.316545 -0.000000 -8.170014
LeftHandThumb1 -26.253704 0.000000 33.147579
RightShoulder -21.041355 32.144680 -51.166698
RightArm 39.538657 47.043668 -2.097752
RightForeArm -32.988114 -0.000000 11.217046
RightHand 10.208146 0.000000 -17.905605
RightHandThumb1 -24.326973 -0.000000 -32.862282
LeftUpLeg 7.084894 12.375247 5.371772
LeftLeg -9.693738 -0.000000 0.000000
LeftFoot -13.961267 24.728488 -10.068313
LeftToeBase 21.651762 -0.000000 -0.000000
RightUpLeg 5.300018 -8.692860 1.414562
RightLeg -4.783346 -0.000000 0.000000
RightFoot -5.534633 -25.504560 7.335355
RightToeBase 12.051165 -0.000000 -0.000000
693
root -5.457119 35.265039 -9.825668 2.424548 -1.079076 -4.664233
Spine -6.703972 1.490369 0.421773
Head -5.147249 -1.353583 7.623170
LeftShoulder -21.780886 9.114332 -13.239543
LeftArm 20.216509 17.752144 -69.378968
LeftForeArm 15.691062 -0.000000 12.350386
LeftHand 2.329989 -0.000000 -8.196155
LeftHandThumb1 -26.253704 0.000000 33.147579
RightShoulder -21.108683 32.306810 -51.150678
RightArm 38.718387 46.898964 -2.397091
RightForeArm -33.300059 -0.000000 11.445055
RightHand 9.665721 -0.000000 -16.391831
RightHandThumb1 -24.326973 -0.000000 -32.862282
LeftUpLeg 7.022870 12.346345 5.384258
LeftLeg -9.707835 -0.000000 0.000000
LeftFoot -13.943401 24.762223 -10.028345
LeftToeBase 21.687074 -0.000000 -0.000000
RightUpLeg 5.240647 -8.717179 1.449903
RightLeg -4.796992 -0.000000 0.000000
RightFoot -5.503500 -25.475752 7.364163
RightToeBase 11.988448 -0.000000 -0.000000
